<svg width="50" height="50" viewBox="0 0 50 50" fill="none" xmlns="http://www.w3.org/2000/svg">
<circle cx="25" cy="25" r="25" fill="#405299"/>
<path d="M25.9258 33.6314C28.0319 32.6781 33 29.7333 33 23.165V19.1969C33 18.079 33 17.5192 32.7822 17.0918C32.5905 16.7155 32.2837 16.4097 31.9074 16.218C31.4796 16 30.9203 16 29.8002 16H20.2002C19.0801 16 18.5196 16 18.0918 16.218C17.7155 16.4097 17.4097 16.7155 17.218 17.0918C17 17.5196 17 18.0801 17 19.2002V23.165C17 29.7333 21.9678 32.6781 24.074 33.6314C24.2972 33.7325 24.4094 33.7829 24.6621 33.8263C24.8215 33.8537 25.1795 33.8537 25.3389 33.8263C25.5907 33.7831 25.7017 33.7328 25.9235 33.6324L25.9258 33.6314Z" stroke="white" stroke-width="2" stroke-linecap="round" stroke-linejoin="round"/>
</svg>
