<svg width="16" height="13" viewBox="0 0 16 13" fill="none" xmlns="http://www.w3.org/2000/svg">
<path d="M1.77772 1.78315L6.5281 5.37047L6.52968 5.37178C7.05715 5.75859 7.32105 5.95211 7.61008 6.02687C7.86556 6.09295 8.13411 6.09295 8.38959 6.02687C8.67888 5.95205 8.94354 5.75796 9.47194 5.37047C9.47194 5.37047 12.5189 3.03221 14.2222 1.78315M0.999939 9.40552V3.49441C0.999939 2.62322 0.999939 2.1873 1.16948 1.85455C1.31862 1.56185 1.55642 1.32405 1.84911 1.17492C2.18187 1.00537 2.61779 1.00537 3.48898 1.00537H12.5112C13.3824 1.00537 13.8174 1.00537 14.1501 1.17492C14.4428 1.32405 14.6814 1.56185 14.8306 1.85455C14.9999 2.18697 14.9999 2.62237 14.9999 3.49186V9.40815C14.9999 10.2776 14.9999 10.7124 14.8306 11.0448C14.6814 11.3375 14.4428 11.5757 14.1501 11.7249C13.8177 11.8943 13.3829 11.8943 12.5135 11.8943H3.48642C2.61693 11.8943 2.18154 11.8943 1.84911 11.7249C1.55642 11.5757 1.31862 11.3375 1.16948 11.0448C0.999939 10.7121 0.999939 10.2767 0.999939 9.40552Z" stroke="white" stroke-width="2" stroke-linecap="round" stroke-linejoin="round"/>
</svg>
