<svg width="50" height="50" viewBox="0 0 50 50" fill="none" xmlns="http://www.w3.org/2000/svg">
<circle cx="25" cy="25" r="25" fill="#F6803E"/>
<path d="M16 27.0002V28.8C16 29.9201 16 30.4798 16.218 30.9076C16.4097 31.2839 16.7155 31.5905 17.0918 31.7822C17.5192 32 18.079 32 19.1969 32H34.0002M16 27.0002V17M16 27.0002L19.8534 23.7891L19.8566 23.7865C20.5537 23.2056 20.9029 22.9146 21.2815 22.7964C21.7289 22.6567 22.2107 22.6788 22.6436 22.8584C23.0105 23.0106 23.3323 23.3324 23.9758 23.9759L23.9822 23.9823C24.6357 24.6358 24.9633 24.9635 25.3362 25.1153C25.7774 25.2951 26.2685 25.3106 26.7207 25.1606C27.1041 25.0334 27.4542 24.7275 28.1543 24.115L34 19" stroke="white" stroke-width="2" stroke-linecap="round" stroke-linejoin="round"/>
</svg>
