<svg width="50" height="50" viewBox="0 0 50 50" fill="none" xmlns="http://www.w3.org/2000/svg">
<circle cx="25" cy="25" r="25" fill="#FE2362"/>
<path d="M30 34C30 32.3431 27.7614 31 25 31C22.2386 31 20 32.3431 20 34M34 31.0004C34 29.7702 32.7659 28.7129 31 28.25M16 31.0004C16 29.7702 17.2341 28.7129 19 28.25M31 24.2361C31.6137 23.6868 32 22.8885 32 22C32 20.3431 30.6569 19 29 19C28.2316 19 27.5308 19.2889 27 19.7639M19 24.2361C18.3863 23.6868 18 22.8885 18 22C18 20.3431 19.3431 19 21 19C21.7684 19 22.4692 19.2889 23 19.7639M25 28C23.3431 28 22 26.6569 22 25C22 23.3431 23.3431 22 25 22C26.6569 22 28 23.3431 28 25C28 26.6569 26.6569 28 25 28Z" stroke="white" stroke-width="2" stroke-linecap="round" stroke-linejoin="round"/>
</svg>
