<svg width="59" height="69" viewBox="0 0 59 69" fill="none" xmlns="http://www.w3.org/2000/svg">
<g filter="url(#filter0_d_70_37)">
<path d="M19 25.3643H29.0885V34.9161C29.0885 40.4878 24.5717 45.0046 19 45.0046V25.3643Z" fill="white"/>
<path d="M29.0886 34.6455H19.0002V25.0937C19.0002 19.522 23.5169 15.0052 29.0886 15.0052L29.0886 34.6455Z" fill="white"/>
<path d="M29.0886 34.6455H29.3569C34.7805 34.6455 39.1771 30.2489 39.1771 24.8254C39.1771 19.4018 34.7804 15.0052 29.3569 15.0052H29.0886L29.0886 34.6455Z" fill="url(#paint0_linear_70_37)"/>
<path d="M29.0886 34.6455H29.3569C34.7805 34.6455 39.1771 30.2489 39.1771 24.8254C39.1771 19.4018 34.7804 15.0052 29.3569 15.0052H29.0886L29.0886 34.6455Z" fill="url(#paint1_linear_70_37)" fill-opacity="0.2"/>
<path d="M29.0886 34.6455H29.3569C34.7805 34.6455 39.1771 30.2489 39.1771 24.8254C39.1771 19.4018 34.7804 15.0052 29.3569 15.0052H29.0886L29.0886 34.6455Z" fill="url(#paint2_linear_70_37)" fill-opacity="0.2"/>
<path fill-rule="evenodd" clip-rule="evenodd" d="M29.0888 25.1484V15.0049H29.3571C32.566 15.0049 35.4155 16.544 37.2074 18.9243C36.6554 18.7611 36.0731 18.6738 35.4713 18.6738C32.0153 18.6738 29.2008 21.5533 29.092 25.1484H29.0888Z" fill="white"/>
</g>
<defs>
<filter id="filter0_d_70_37" x="3.05176e-05" y="0.00488281" width="58.1771" height="67.9998" filterUnits="userSpaceOnUse" color-interpolation-filters="sRGB">
<feFlood flood-opacity="0" result="BackgroundImageFix"/>
<feColorMatrix in="SourceAlpha" type="matrix" values="0 0 0 0 0 0 0 0 0 0 0 0 0 0 0 0 0 0 127 0" result="hardAlpha"/>
<feOffset dy="4"/>
<feGaussianBlur stdDeviation="9.5"/>
<feComposite in2="hardAlpha" operator="out"/>
<feColorMatrix type="matrix" values="0 0 0 0 0 0 0 0 0 0 0 0 0 0 0 0 0 0 0.26 0"/>
<feBlend mode="normal" in2="BackgroundImageFix" result="effect1_dropShadow_70_37"/>
<feBlend mode="normal" in="SourceGraphic" in2="effect1_dropShadow_70_37" result="shape"/>
</filter>
<linearGradient id="paint0_linear_70_37" x1="38.7138" y1="31.1923" x2="33.2834" y2="16.0252" gradientUnits="userSpaceOnUse">
<stop offset="0.671875" stop-color="white"/>
<stop offset="1" stop-color="#CDCDCD"/>
</linearGradient>
<linearGradient id="paint1_linear_70_37" x1="39.8462" y1="28.6563" x2="27.9662" y2="22.4383" gradientUnits="userSpaceOnUse">
<stop offset="0.358595" stop-color="white"/>
<stop offset="1" stop-color="#424242"/>
</linearGradient>
<linearGradient id="paint2_linear_70_37" x1="27.6474" y1="27.9549" x2="38.7355" y2="29.5292" gradientUnits="userSpaceOnUse">
<stop stop-color="#CDCDCD"/>
<stop offset="0.25393" stop-color="white"/>
</linearGradient>
</defs>
</svg>
