<svg width="351" height="49" viewBox="0 0 351 49" fill="none" xmlns="http://www.w3.org/2000/svg">
<path d="M35.184 10.56C36.2933 12.8213 36.848 15.3387 36.848 18.112C36.848 20.8853 36.2933 23.4027 35.184 25.664C34.0747 27.8827 32.6453 29.6533 30.896 30.976C27.3547 33.7067 23.6853 35.072 19.888 35.072H11.888V42.304C11.888 43.2853 11.8453 44.032 11.76 44.544C11.7173 45.0133 11.5253 45.568 11.184 46.208C10.5867 47.36 8.92267 47.936 6.192 47.936C3.20533 47.936 1.456 47.1467 0.944 45.568C0.688 44.8427 0.56 43.7333 0.56 42.24V6.72C0.56 5.73866 0.581333 5.01333 0.624 4.544C0.709333 4.032 0.922667 3.456 1.264 2.816C1.86133 1.664 3.52533 1.088 6.256 1.088H19.952C23.7067 1.088 27.3547 2.45333 30.896 5.184C32.6453 6.50667 34.0747 8.29867 35.184 10.56ZM19.952 23.744C21.232 23.744 22.4907 23.2747 23.728 22.336C24.9653 21.3973 25.584 19.9893 25.584 18.112C25.584 16.2347 24.9653 14.8267 23.728 13.888C22.4907 12.9067 21.2107 12.416 19.888 12.416H11.888V23.744H19.952ZM76.9015 40.064C77.5415 41.6 77.8615 42.7093 77.8615 43.392C77.8615 45.0133 76.5388 46.3787 73.8935 47.488C72.5282 48.0853 71.4188 48.384 70.5655 48.384C69.7548 48.384 69.0722 48.192 68.5175 47.808C68.0055 47.3813 67.6215 46.9547 67.3655 46.528C66.9388 45.7173 65.2748 41.856 62.3735 34.944L60.3895 35.072H52.3255V42.304C52.3255 43.2853 52.2828 44.032 52.1975 44.544C52.1548 45.0133 51.9628 45.568 51.6215 46.208C51.0242 47.36 49.3602 47.936 46.6295 47.936C43.6428 47.936 41.8935 47.1467 41.3815 45.568C41.1255 44.8427 40.9975 43.7333 40.9975 42.24V6.72C40.9975 5.73866 41.0188 5.01333 41.0615 4.544C41.1468 4.032 41.3602 3.456 41.7015 2.816C42.2988 1.664 43.9628 1.088 46.6935 1.088H60.5175C64.2722 1.088 67.9202 2.45333 71.4615 5.184C73.1682 6.50667 74.5762 8.29867 75.6855 10.56C76.7948 12.8213 77.3495 15.3387 77.3495 18.112C77.3495 22.9333 75.7495 26.9013 72.5495 30.016C73.4882 32.2773 74.9388 35.6267 76.9015 40.064ZM52.3255 23.744H60.5175C61.7548 23.744 62.9922 23.2747 64.2295 22.336C65.4668 21.3973 66.0855 19.9893 66.0855 18.112C66.0855 16.2347 65.4668 14.8267 64.2295 13.888C62.9922 12.9067 61.7122 12.416 60.3895 12.416H52.3255V23.744ZM102.764 0.511997C109.078 0.511997 114.561 2.79466 119.212 7.36C123.862 11.9253 126.188 17.6 126.188 24.384C126.188 31.1253 123.969 36.8853 119.532 41.664C115.094 46.4 109.633 48.768 103.148 48.768C96.6622 48.768 91.1368 46.4213 86.5715 41.728C82.0488 37.0347 79.7875 31.4453 79.7875 24.96C79.7875 21.4187 80.4275 18.112 81.7075 15.04C82.9875 11.9253 84.6942 9.32267 86.8275 7.232C88.9608 5.14133 91.4142 3.49866 94.1875 2.304C96.9608 1.10933 99.8195 0.511997 102.764 0.511997ZM91.1155 24.64C91.1155 28.4373 92.3315 31.5307 94.7635 33.92C97.2382 36.2667 99.9902 37.44 103.02 37.44C106.049 37.44 108.78 36.288 111.212 33.984C113.644 31.68 114.86 28.5867 114.86 24.704C114.86 20.8213 113.622 17.7067 111.148 15.36C108.716 13.0133 105.985 11.84 102.956 11.84C99.9262 11.84 97.1955 13.0347 94.7635 15.424C92.3315 17.7707 91.1155 20.8427 91.1155 24.64ZM161.413 1.088C162.394 1.088 163.119 1.13066 163.589 1.216C164.101 1.25867 164.655 1.45066 165.253 1.792C165.893 2.13333 166.341 2.70933 166.597 3.52C166.853 4.33066 166.981 5.41866 166.981 6.784C166.981 8.14933 166.853 9.23733 166.597 10.048C166.341 10.8587 165.893 11.4347 165.253 11.776C164.613 12.0747 164.037 12.2667 163.525 12.352C163.055 12.3947 162.309 12.416 161.285 12.416H141.701V18.88H154.309C155.333 18.88 156.079 18.9227 156.549 19.008C157.061 19.0507 157.637 19.2427 158.277 19.584C159.386 20.224 159.941 21.9093 159.941 24.64C159.941 27.6267 159.13 29.3973 157.509 29.952C156.826 30.1653 155.738 30.272 154.245 30.272H141.701V42.368C141.701 43.392 141.658 44.1387 141.573 44.608C141.53 45.0773 141.338 45.632 140.997 46.272C140.399 47.424 138.735 48 136.005 48C133.018 48 131.269 47.1893 130.757 45.568C130.501 44.8853 130.373 43.7973 130.373 42.304V6.72C130.373 4.544 130.778 3.072 131.589 2.304C132.399 1.49333 133.935 1.088 136.197 1.088H161.413ZM171.123 6.72C171.123 5.73866 171.144 5.01333 171.187 4.544C171.272 4.032 171.485 3.456 171.827 2.816C172.424 1.664 174.088 1.088 176.819 1.088C179.805 1.088 181.576 1.87733 182.131 3.456C182.344 4.18133 182.451 5.29066 182.451 6.784V42.368C182.451 43.392 182.408 44.1387 182.323 44.608C182.28 45.0773 182.088 45.632 181.747 46.272C181.149 47.424 179.485 48 176.755 48C173.768 48 172.019 47.1893 171.507 45.568C171.251 44.8853 171.123 43.7973 171.123 42.304V6.72ZM190.632 1.024H226.216C227.581 1.024 228.584 1.19467 229.224 1.536C229.864 1.83466 230.291 2.32533 230.504 3.008C230.717 3.69066 230.824 4.58666 230.824 5.696C230.824 6.80533 230.717 7.70133 230.504 8.384C230.291 9.024 229.928 9.472 229.416 9.728C228.648 10.112 227.56 10.304 226.152 10.304H213.928V42.496C213.928 43.4773 213.885 44.2027 213.8 44.672C213.757 45.1413 213.565 45.696 213.224 46.336C212.925 46.9333 212.371 47.36 211.56 47.616C210.749 47.872 209.683 48 208.36 48C207.037 48 205.971 47.872 205.16 47.616C204.392 47.36 203.837 46.9333 203.496 46.336C203.197 45.696 203.005 45.1413 202.92 44.672C202.877 44.16 202.856 43.4133 202.856 42.432V10.304H190.568C189.203 10.304 188.2 10.1547 187.56 9.856C186.92 9.51466 186.493 9.00267 186.28 8.32C186.067 7.63733 185.96 6.74133 185.96 5.632C185.96 4.52266 186.067 3.648 186.28 3.008C186.493 2.32533 186.856 1.856 187.368 1.6C188.136 1.216 189.224 1.024 190.632 1.024ZM251.82 4.416L269.1 40.128C269.825 41.5787 270.188 42.6667 270.188 43.392C270.188 44.928 268.95 46.3147 266.476 47.552C265.025 48.2773 263.873 48.64 263.02 48.64C262.209 48.64 261.526 48.448 260.972 48.064C260.46 47.68 260.076 47.2747 259.819 46.848C259.606 46.4213 259.286 45.7813 258.86 44.928L255.532 38.016H237.804L234.476 44.928C234.049 45.7813 233.708 46.4 233.452 46.784C233.238 47.168 232.854 47.5733 232.3 48C231.788 48.384 231.105 48.576 230.252 48.576C229.441 48.576 228.31 48.2133 226.86 47.488C224.385 46.2933 223.148 44.928 223.148 43.392C223.148 42.6667 223.51 41.5787 224.236 40.128L241.516 4.352C241.985 3.37066 242.689 2.58133 243.628 1.984C244.609 1.38666 245.633 1.088 246.7 1.088C249.004 1.088 250.71 2.19733 251.82 4.416ZM246.636 19.776L242.412 28.544H250.924L246.636 19.776ZM308.309 10.56C309.418 12.8213 309.973 15.3387 309.973 18.112C309.973 20.8853 309.418 23.4027 308.309 25.664C307.2 27.8827 305.77 29.6533 304.021 30.976C300.48 33.7067 296.81 35.072 293.013 35.072H285.013V42.304C285.013 43.2853 284.97 44.032 284.885 44.544C284.842 45.0133 284.65 45.568 284.309 46.208C283.712 47.36 282.048 47.936 279.317 47.936C276.33 47.936 274.581 47.1467 274.069 45.568C273.813 44.8427 273.685 43.7333 273.685 42.24V6.72C273.685 5.73866 273.706 5.01333 273.749 4.544C273.834 4.032 274.048 3.456 274.389 2.816C274.986 1.664 276.65 1.088 279.381 1.088H293.077C296.832 1.088 300.48 2.45333 304.021 5.184C305.77 6.50667 307.2 8.29867 308.309 10.56ZM293.077 23.744C294.357 23.744 295.616 23.2747 296.853 22.336C298.09 21.3973 298.709 19.9893 298.709 18.112C298.709 16.2347 298.09 14.8267 296.853 13.888C295.616 12.9067 294.336 12.416 293.013 12.416H285.013V23.744H293.077ZM348.747 10.56C349.856 12.8213 350.411 15.3387 350.411 18.112C350.411 20.8853 349.856 23.4027 348.747 25.664C347.637 27.8827 346.208 29.6533 344.458 30.976C340.917 33.7067 337.248 35.072 333.451 35.072H325.451V42.304C325.451 43.2853 325.408 44.032 325.323 44.544C325.28 45.0133 325.088 45.568 324.747 46.208C324.149 47.36 322.485 47.936 319.755 47.936C316.768 47.936 315.019 47.1467 314.507 45.568C314.251 44.8427 314.123 43.7333 314.123 42.24V6.72C314.123 5.73866 314.144 5.01333 314.187 4.544C314.272 4.032 314.485 3.456 314.827 2.816C315.424 1.664 317.088 1.088 319.819 1.088H333.515C337.269 1.088 340.917 2.45333 344.458 5.184C346.208 6.50667 347.637 8.29867 348.747 10.56ZM333.515 23.744C334.795 23.744 336.053 23.2747 337.291 22.336C338.528 21.3973 339.147 19.9893 339.147 18.112C339.147 16.2347 338.528 14.8267 337.291 13.888C336.053 12.9067 334.773 12.416 333.451 12.416H325.451V23.744H333.515Z" fill="url(#paint0_linear_20_247)"/>
<defs>
<linearGradient id="paint0_linear_20_247" x1="-2" y1="46.5" x2="352.05" y2="2.90526" gradientUnits="userSpaceOnUse">
<stop stop-color="#FA693A"/>
<stop offset="0.351913" stop-color="#F6803E"/>
<stop offset="1" stop-color="#FF1368"/>
</linearGradient>
</defs>
</svg>
