<svg width="19" height="19" viewBox="0 0 19 19" fill="none" xmlns="http://www.w3.org/2000/svg">
  <path d="M9.49979 3.05176e-05C7.62087 3.05176e-05 5.78414 0.557196 4.22187 1.60107C2.65961 2.64494 1.44197 4.12864 0.722935 5.86454C0.00390261 7.60043 -0.184229 9.51057 0.18233 11.3534C0.54889 13.1962 1.45368 14.8889 2.78228 16.2175C4.11087 17.5461 5.80361 18.4509 7.64643 18.8175C9.48925 19.184 11.3994 18.9959 13.1353 18.2769C14.8712 17.5578 16.3549 16.3402 17.3987 14.7779C18.4426 13.2157 18.9998 11.379 18.9998 9.50003C18.9968 6.98138 17.995 4.56675 16.214 2.7858C14.4331 1.00485 12.0184 0.00300183 9.49979 3.05176e-05ZM9.49979 17.2728C7.89208 17.2354 6.32959 16.7333 5.00111 15.827C5.56807 15.1955 6.26167 14.6903 7.03676 14.3446C7.81185 13.9988 8.65106 13.8201 9.49979 13.8201C10.3485 13.8201 11.1877 13.9988 11.9628 14.3446C12.7379 14.6903 13.4315 15.1955 13.9985 15.827C12.681 16.7556 11.1116 17.26 9.49979 17.2728ZM15.281 14.6767C14.5535 13.8632 13.6626 13.2123 12.6664 12.7667C11.6701 12.3212 10.5911 12.0908 9.49979 12.0908C8.40847 12.0908 7.32943 12.3212 6.33322 12.7667C5.33701 13.2123 4.44606 13.8632 3.71861 14.6767C2.71461 13.5595 2.05581 12.1753 1.8219 10.6916C1.58798 9.20793 1.78897 7.68823 2.40055 6.31635C3.01213 4.94447 4.0081 3.77917 5.268 2.96141C6.5279 2.14364 7.99776 1.70844 9.49979 1.70844C11.0018 1.70844 12.4717 2.14364 13.7316 2.96141C14.9915 3.77917 15.9875 4.94447 16.599 6.31635C17.2106 7.68823 17.4116 9.20793 17.1777 10.6916C16.9438 12.1753 16.285 13.5595 15.281 14.6767ZM9.49979 4.31821C8.81654 4.31821 8.14864 4.52082 7.58055 4.90041C7.01245 5.28 6.56967 5.81952 6.3082 6.45076C6.04674 7.08199 5.97833 7.77659 6.11162 8.4467C6.24492 9.11682 6.57393 9.73236 7.05706 10.2155C7.54018 10.6986 8.15572 11.0276 8.82584 11.1609C9.49596 11.2942 10.1905 11.2258 10.8218 10.9643C11.453 10.7029 11.9925 10.2601 12.3721 9.692C12.7517 9.1239 12.9543 8.456 12.9543 7.77276C12.9543 6.85655 12.5904 5.97788 11.9425 5.33002C11.2947 4.68217 10.416 4.31821 9.49979 4.31821ZM9.49979 9.50003C9.15817 9.50003 8.82422 9.39873 8.54017 9.20893C8.25612 9.01914 8.03473 8.74937 7.904 8.43375C7.77326 8.11814 7.73906 7.77084 7.8057 7.43578C7.87235 7.10072 8.03686 6.79295 8.27842 6.55139C8.51999 6.30983 8.82776 6.14532 9.16281 6.07867C9.49787 6.01203 9.84517 6.04623 10.1608 6.17696C10.4764 6.3077 10.7462 6.52909 10.936 6.81314C11.1258 7.09718 11.2271 7.43113 11.2271 7.77276C11.2271 8.23086 11.0451 8.6702 10.7212 8.99412C10.3972 9.31805 9.95789 9.50003 9.49979 9.50003Z" />
</svg>
